<svg width="172" height="122" viewBox="0 0 172 122" fill="none" xmlns="http://www.w3.org/2000/svg">
<g clip-path="url(#clip0_1592_341)">
<path opacity="0.1" d="M147.012 0.194017L146.817 0L145.971 0.846093L146.165 1.04011C179.142 33.9982 178.978 87.7887 145.798 120.949L146.639 121.789C180.308 88.2063 180.474 33.6373 147.012 0.194017ZM26.1859 1.40686L25.3444 0.565862C-8.25869 34.1493 -8.45762 88.5559 24.8106 122L25.6572 121.154C-7.158 88.1623 -6.92879 34.5021 26.1859 1.40686Z" fill="#A6CE39"/>
<path opacity="0.3" d="M137.114 10.0876C137.049 10.0229 136.984 9.95819 136.92 9.89355L135.194 11.6182C135.259 11.6829 135.324 11.7476 135.388 11.8123C162.476 38.8839 162.341 83.0705 135.12 110.276L136.834 111.99C165 83.8417 165.14 38.0971 137.114 10.0876ZM36.8986 12.1133L35.1835 10.3991C7.05059 38.5154 6.84636 84.0655 34.7099 112.108L36.4357 110.383C9.478 83.3113 9.71011 39.2859 36.8986 12.1133Z" fill="#A6CE39"/>
<path opacity="0.5" d="M127.215 19.9787L127.021 19.7847L124.449 22.3554L124.643 22.5495C145.84 43.7344 145.735 78.2534 124.407 99.5691L126.964 102.124C149.724 79.4423 149.837 42.5865 127.215 19.9787ZM47.5787 22.785L45.0221 20.2299C22.3595 42.8792 22.1822 79.6041 44.6088 102.214L47.1812 99.642C26.1785 78.4572 26.3162 44.0351 47.5787 22.785Z" fill="#A6CE39"/>
<path opacity="0.8" d="M117.317 29.8722L117.122 29.6782L113.671 33.1276C113.735 33.1924 113.8 33.257 113.865 33.3217C129.141 48.588 129.097 73.5361 113.695 88.9284L117.125 92.3572C134.416 75.0777 134.501 47.0464 117.317 29.8722ZM58.2902 33.4916L54.8598 30.0632C37.635 47.2782 37.4848 75.1136 54.4746 92.2892L57.9261 88.8395C42.8132 73.6051 42.9539 48.8187 58.2902 33.4916Z" fill="#A6CE39"/>
<path d="M107.418 39.7646C107.353 39.7007 107.288 39.6357 107.224 39.5708L102.925 43.8667C102.99 43.9316 103.054 43.9956 103.119 44.0605C112.505 53.4406 112.458 68.7529 103.015 78.1909L107.287 82.4599C119.139 70.6791 119.165 51.5054 107.418 39.7646ZM68.9697 44.1654L64.6972 39.8955C52.9429 51.6433 52.8199 70.6551 64.3723 82.3959L68.6708 78.101C59.4801 68.721 59.5591 53.5694 68.9697 44.1654Z" fill="#A6CE39"/>
</g>
<defs>
<clipPath id="clip0_1592_341">
<rect width="172" height="122" fill="white"/>
</clipPath>
</defs>
</svg>
