<svg width="17" height="17" viewBox="0 0 17 17" fill="none" xmlns="http://www.w3.org/2000/svg">
<g clip-path="url(#clip0_2104_8507)">
<path d="M14.7734 4.19822H13.0527L12.1027 2.76429C11.7442 2.22656 11.1169 1.90393 10.4716 1.90393H6.52833C5.88306 1.90393 5.25571 2.22656 4.89723 2.76429L3.94725 4.19822H2.22654C1.13316 4.19822 0.254883 5.0765 0.254883 6.16987V13.1244C0.254883 14.2178 1.13316 15.0961 2.22654 15.0961H14.7734C15.8668 15.0961 16.7451 14.2178 16.7451 13.1244V6.16987C16.7451 5.0765 15.8668 4.19822 14.7734 4.19822ZM8.49998 13.4829C6.04438 13.4829 4.0548 11.4933 4.0548 9.03773C4.0548 6.58213 6.04438 4.61047 8.49998 4.61047C10.9556 4.61047 12.9452 6.60005 12.9452 9.05566C12.9452 11.4933 10.9556 13.4829 8.49998 13.4829ZM14.5225 6.97646C14.5046 6.97646 14.4866 6.97646 14.4508 6.97646H13.7338C13.4112 6.95853 13.1603 6.68967 13.1782 6.36704C13.1961 6.06233 13.4291 5.82931 13.7338 5.81139H14.4508C14.7734 5.79347 15.0423 6.0444 15.0602 6.36704C15.0781 6.68967 14.8451 6.95853 14.5225 6.97646Z" fill="#A0A0A0"/>
<path d="M8.49999 6.58215C7.13775 6.58215 6.02646 7.69345 6.02646 9.05568C6.02646 10.4179 7.13775 11.5113 8.49999 11.5113C9.86222 11.5113 10.9735 10.4 10.9735 9.03776C10.9735 7.67553 9.86222 6.58215 8.49999 6.58215Z" fill="#A0A0A0"/>
</g>
<defs>
<clipPath id="clip0_2104_8507">
<rect width="16.4902" height="16.4902" fill="white" transform="translate(0.254883 0.254883)"/>
</clipPath>
</defs>
</svg>
