<svg width="70" height="70" viewBox="0 0 70 70" fill="none" xmlns="http://www.w3.org/2000/svg">
<circle cx="35.1917" cy="35.3128" r="34.3973" fill="#2B4C5A"/>
<path d="M39.0047 31.4715C38.5932 31.0575 38.1368 30.6906 37.6442 30.3773C36.3394 29.5418 34.8225 29.0978 33.2731 29.0978C31.1225 29.0938 29.0594 29.9482 27.5414 31.4715L20.1771 38.8416C18.6617 40.3599 17.81 42.4171 17.8086 44.5623C17.8057 49.0387 21.4323 52.6699 25.9088 52.6728C28.056 52.6803 30.1172 51.8299 31.6346 50.3107L37.7137 44.2316C37.8241 44.1221 37.8858 43.9727 37.8849 43.8172C37.8831 43.4975 37.6223 43.2398 37.3026 43.2416H37.071C35.8009 43.2461 34.5422 43.0022 33.3657 42.5237C33.149 42.4345 32.8998 42.4849 32.7347 42.6511L28.3636 47.028C27.0062 48.3853 24.8056 48.3853 23.4482 47.028C22.0909 45.6707 22.0909 43.47 23.4482 42.1127L30.8415 34.7252C32.1978 33.3707 34.3948 33.3707 35.7511 34.7252C36.6651 35.5855 38.0908 35.5855 39.0048 34.7252C39.398 34.3317 39.6364 33.8096 39.6764 33.2547C39.7187 32.5915 39.4741 31.942 39.0047 31.4715Z" fill="white"/>
<path d="M50.1727 20.3033C47.0072 17.1378 41.8749 17.1378 38.7094 20.3033L32.6361 26.3707C32.4693 26.5383 32.4212 26.7904 32.5145 27.0076C32.6067 27.2255 32.8222 27.3653 33.0587 27.3608H33.2729C34.5415 27.3584 35.7982 27.6043 36.9724 28.0845C37.1892 28.1737 37.4383 28.1233 37.6035 27.9571L41.963 23.6034C43.3203 22.246 45.521 22.246 46.8783 23.6034C48.2357 24.9607 48.2357 27.1614 46.8783 28.5187L41.4477 33.9435L41.4014 33.9956L39.5024 35.883C38.1462 37.2375 35.9491 37.2375 34.5929 35.883C33.6788 35.0228 32.2531 35.0228 31.3392 35.883C30.9434 36.2795 30.7048 36.8061 30.6676 37.3651C30.6252 38.0283 30.8698 38.6778 31.3392 39.1483C32.0093 39.8213 32.7933 40.3701 33.655 40.7693C33.7765 40.8272 33.8981 40.8736 34.0197 40.9257C34.1413 40.9778 34.2686 41.0183 34.3902 41.0646C34.5118 41.1109 34.6391 41.1515 34.7607 41.1862L35.1023 41.2788C35.3339 41.3367 35.5655 41.383 35.8028 41.4235C36.0887 41.466 36.3767 41.4931 36.6655 41.5046H37.0707H37.1055L37.4529 41.4641C37.5802 41.4583 37.7134 41.4293 37.8639 41.4293H38.0608L38.4602 41.3715L38.6455 41.3367L38.9813 41.2673H39.045C40.4671 40.9101 41.7657 40.1737 42.8024 39.1367L50.1725 31.7666C53.3382 28.6011 53.3382 23.4688 50.1727 20.3033Z" fill="white"/>
</svg>
