<svg width="33" height="26" viewBox="0 0 33 26" fill="none" xmlns="http://www.w3.org/2000/svg">
<path d="M6.66297 5.84829H11.9593L25.9738 1.06152C26.0718 1.02171 26.1774 1 26.2904 1C26.7339 1 27.0944 1.34502 27.0944 1.77206V7.05572H28.9926C29.8204 7.05572 30.5717 7.38023 31.1169 7.90378C31.6621 8.42612 32 9.1487 32 9.94371V12.6314C32 13.4264 31.6621 14.1478 31.1169 14.6714C30.5717 15.1937 29.8204 15.5194 28.9926 15.5194H27.0944V20.8031H27.0919C27.0919 20.8887 27.0768 20.9744 27.0467 21.06C26.8984 21.4617 26.4412 21.6729 26.0228 21.5305L12.894 17.0455V24.0554C12.894 24.4801 12.5347 24.8239 12.0938 24.8239V24.8263H8.8061C8.41414 24.8263 8.08878 24.5573 8.01719 24.2002L5.94065 16.681C4.6706 16.523 3.52868 15.9584 2.66326 15.1284C1.63818 14.1441 1 12.7833 1 11.2873C1 9.79129 1.63692 8.43067 2.66326 7.44614C3.68835 6.46057 5.1054 5.84894 6.66327 5.84894L6.66297 5.84829ZM27.0943 8.59873V13.9741H28.9924C29.3768 13.9741 29.7261 13.8233 29.9798 13.5784C30.2336 13.3348 30.3919 12.9982 30.3919 12.6303V9.94254C30.3919 9.57341 30.2348 9.23805 29.9798 8.99436C29.7261 8.75068 29.3756 8.5987 28.9924 8.5987L27.0943 8.59873ZM11.2933 16.7236H7.61264L9.42413 23.2811H11.2947V16.7236H11.2933ZM12.8975 7.16332V15.4086L25.4864 19.708V2.86388L12.8975 7.16332ZM11.2895 7.39131H6.66274C5.54848 7.39131 4.53468 7.82923 3.7998 8.53492C3.06489 9.24064 2.6089 10.2141 2.6089 11.2842C2.6089 12.3542 3.06492 13.3277 3.7998 14.0334C4.53471 14.7391 5.54848 15.177 6.66274 15.177H11.2895V7.38755V7.39131Z" fill="#2B4C5A" stroke="#2B4C5A" stroke-width="1.5"/>
</svg>
