<svg width="70" height="70" viewBox="0 0 70 70" fill="none" xmlns="http://www.w3.org/2000/svg">
<circle cx="34.9864" cy="35.3128" r="34.3973" fill="#B3DAFE"/>
<g clip-path="url(#clip0_2256_64)">
<path d="M55.7041 23.2002L43.1409 35.6825L55.7041 48.1649C55.9312 47.6902 56.069 47.1654 56.069 46.605V24.76C56.069 24.1996 55.9312 23.6749 55.7041 23.2002Z" fill="white"/>
<path d="M52.4281 21.1192H18.2852C17.7247 21.1192 17.2 21.257 16.7253 21.4841L32.7825 37.4603C34.2023 38.8801 36.511 38.8801 37.9308 37.4603L53.9879 21.4841C53.5133 21.257 52.9886 21.1192 52.4281 21.1192Z" fill="white"/>
<path d="M15.0092 23.2002C14.7821 23.6749 14.6443 24.1996 14.6443 24.76V46.605C14.6443 47.1655 14.7821 47.6903 15.0092 48.1649L27.5724 35.6825L15.0092 23.2002Z" fill="white"/>
<path d="M41.4247 37.3987L39.6469 39.1765C37.2813 41.5421 33.4319 41.5421 31.0663 39.1765L29.2886 37.3987L16.7253 49.881C17.2 50.1081 17.7247 50.2459 18.2852 50.2459H52.4281C52.9886 50.2459 53.5133 50.1081 53.9879 49.881L41.4247 37.3987Z" fill="white"/>
</g>
<defs>
<clipPath id="clip0_2256_64">
<rect width="41.4247" height="41.4247" fill="white" transform="translate(14.6443 14.9702)"/>
</clipPath>
</defs>
</svg>
