<svg width="69" height="70" viewBox="0 0 69 70" fill="none" xmlns="http://www.w3.org/2000/svg">
<circle cx="34.3973" cy="35.3128" r="34.3973" fill="#A6CE39"/>
<path d="M34.2995 15.71C45.4626 15.71 54.5446 23.8837 54.5446 33.9307C54.5446 37.4425 53.4338 40.8444 51.327 43.786C51.7258 48.1974 52.7948 51.4724 54.3469 53.0239C54.552 53.229 54.6033 53.5428 54.4738 53.802C54.359 54.0334 54.1228 54.1758 53.8698 54.1758C53.8387 54.1758 53.8077 54.1738 53.776 54.1691C53.5027 54.1306 47.1538 53.2169 42.5615 50.5661C39.9539 51.6182 37.1763 52.1513 34.2995 52.1513C23.1363 52.1513 14.0543 43.9777 14.0543 33.9307C14.0543 23.8837 23.1363 15.71 34.2995 15.71ZM43.7472 36.63C45.2359 36.63 46.4466 35.4194 46.4466 33.9307C46.4466 32.442 45.2359 31.2313 43.7472 31.2313C42.2585 31.2313 41.0479 32.442 41.0479 33.9307C41.0479 35.4194 42.2585 36.63 43.7472 36.63ZM34.2995 36.63C35.7882 36.63 36.9988 35.4194 36.9988 33.9307C36.9988 32.442 35.7882 31.2313 34.2995 31.2313C32.8108 31.2313 31.6001 32.442 31.6001 33.9307C31.6001 35.4194 32.8108 36.63 34.2995 36.63ZM24.8517 36.63C26.3404 36.63 27.5511 35.4194 27.5511 33.9307C27.5511 32.442 26.3404 31.2313 24.8517 31.2313C23.363 31.2313 22.1524 32.442 22.1524 33.9307C22.1524 35.4194 23.363 36.63 24.8517 36.63Z" fill="#F7F7F7"/>
</svg>
