<svg width="25" height="27" viewBox="0 0 25 27" fill="none" xmlns="http://www.w3.org/2000/svg">
<path fill-rule="evenodd" clip-rule="evenodd" d="M9.89569 24.45C10.3837 25.3672 11.2852 25.9319 12.28 25.9319C13.2748 25.9319 14.1771 25.3664 14.6666 24.4469C14.6906 24.4118 14.7125 24.3751 14.7305 24.3361C14.8809 24.0234 15.1125 23.6326 15.3726 23.5461C15.5711 23.4774 15.8862 23.557 16.3012 23.7824C16.3403 23.8034 16.3809 23.8206 16.4223 23.8346C17.3321 24.2722 18.3743 24.1653 19.1773 23.5406C19.9721 22.926 20.3856 21.9168 20.2766 20.8795C20.2774 20.8342 20.2744 20.789 20.2676 20.7438C20.1165 19.726 20.3082 19.439 21.2466 19.2814C21.2917 19.2736 21.3346 19.2627 21.3759 19.2463C22.3459 19.0326 23.1249 18.2979 23.4279 17.3012C23.7294 16.3114 23.5061 15.239 22.8474 14.4669C22.8226 14.4295 22.7948 14.3944 22.7639 14.3608C22.0872 13.6386 22.0872 13.2642 22.7639 12.542C22.7948 12.5093 22.8218 12.4742 22.8459 12.4375C23.5061 11.6654 23.7286 10.5922 23.4279 9.6017C23.1241 8.60495 22.3459 7.87182 21.3774 7.65734C21.3346 7.64174 21.2917 7.63082 21.2466 7.62302C20.3082 7.46469 20.1157 7.17768 20.2668 6.15987C20.2736 6.11542 20.2766 6.07096 20.2759 6.02728C20.3841 4.9892 19.9713 3.97919 19.1766 3.36305C18.3713 2.74066 17.3291 2.63225 16.4215 3.07057C16.3802 3.08383 16.3396 3.10177 16.3005 3.12283C15.8862 3.34823 15.5726 3.42778 15.3719 3.35915C15.1117 3.27179 14.8794 2.88105 14.7297 2.56908C14.7117 2.53086 14.6899 2.4942 14.6666 2.46067C14.1786 1.54035 13.2755 0.974121 12.28 0.974121C11.286 0.974121 10.3852 1.53801 9.89719 2.45443C9.87238 2.4903 9.84982 2.52852 9.83027 2.56908C9.6814 2.88183 9.44905 3.27179 9.18964 3.35915C8.98663 3.42856 8.67458 3.34745 8.26103 3.12283C8.22193 3.10255 8.18208 3.08461 8.14148 3.07135C7.23392 2.63303 6.18876 2.73988 5.38421 3.36383C4.58868 3.97997 4.17513 4.99076 4.28491 6.02806C4.28416 6.07252 4.28717 6.1162 4.29243 6.15987C4.44281 7.17768 4.25108 7.46469 3.31269 7.6238C3.26832 7.63082 3.22547 7.64252 3.18411 7.65812C2.21489 7.87182 1.43591 8.60573 1.13214 9.60248C0.830621 10.5914 1.05394 11.6631 1.71186 12.4352C1.73592 12.4734 1.7645 12.5093 1.79608 12.5428C2.47355 13.265 2.47355 13.6394 1.79608 14.3616C1.76525 14.3944 1.73743 14.4302 1.71337 14.4677C1.05394 15.2398 0.830621 16.3122 1.13214 17.3019C1.43591 18.2987 2.21339 19.0326 3.18185 19.2471C3.22396 19.2627 3.26832 19.2744 3.31344 19.2822C4.25183 19.4397 4.44432 19.7267 4.29318 20.7446C4.28642 20.789 4.28416 20.8319 4.28491 20.8748C4.17438 21.9137 4.58793 22.9252 5.38346 23.5414C6.1865 24.1645 7.22865 24.2722 8.13621 23.8362C8.17832 23.8229 8.21968 23.805 8.26028 23.7832C8.67383 23.5585 8.98588 23.4774 9.18889 23.5468C9.4483 23.6342 9.68064 24.0249 9.82952 24.3369C9.84907 24.3767 9.87088 24.4149 9.89569 24.45Z" fill="#A6CE39"/>
<path d="M9.89569 24.45L10.3371 24.2151L10.3222 24.1872L10.304 24.1614L9.89569 24.45ZM14.6666 24.4469L14.2542 24.1642L14.2384 24.1872L14.2252 24.2119L14.6666 24.4469ZM14.7305 24.3361L14.2798 24.1194L14.2767 24.1261L14.7305 24.3361ZM15.3726 23.5461L15.5305 24.0205L15.536 24.0186L15.3726 23.5461ZM16.3012 23.7824L16.0626 24.2218L16.0641 24.2226L16.3012 23.7824ZM16.4223 23.8346L16.639 23.384L16.6117 23.3709L16.583 23.3612L16.4223 23.8346ZM19.1773 23.5406L18.8715 23.1451L18.8703 23.146L19.1773 23.5406ZM20.2766 20.8795L19.7767 20.8712L19.7762 20.9015L19.7794 20.9317L20.2766 20.8795ZM20.2676 20.7438L19.773 20.8172L19.7731 20.8177L20.2676 20.7438ZM21.2466 19.2814L21.3294 19.7745L21.3317 19.7741L21.2466 19.2814ZM21.3759 19.2463L21.2683 18.758L21.2291 18.7667L21.1918 18.7814L21.3759 19.2463ZM23.4279 17.3012L22.9496 17.1555L22.9495 17.1557L23.4279 17.3012ZM22.8474 14.4669L22.4306 14.7431L22.4474 14.7684L22.467 14.7914L22.8474 14.4669ZM22.7639 14.3608L23.1321 14.0224L23.1288 14.019L22.7639 14.3608ZM22.7639 12.542L22.3998 12.1994L22.3991 12.2002L22.7639 12.542ZM22.8459 12.4375L22.4659 12.1126L22.4453 12.1367L22.4279 12.1632L22.8459 12.4375ZM23.4279 9.6017L23.9063 9.45643L23.9062 9.45594L23.4279 9.6017ZM21.3774 7.65734L21.2064 8.12719L21.2373 8.13841L21.2693 8.14551L21.3774 7.65734ZM21.2466 7.62302L21.3318 7.13032L21.3298 7.12999L21.2466 7.62302ZM20.2668 6.15987L19.7725 6.08463L19.7723 6.08643L20.2668 6.15987ZM20.2759 6.02728L19.7786 5.97541L19.7754 6.00557L19.7759 6.03589L20.2759 6.02728ZM19.1766 3.36305L19.4829 2.96788L19.4823 2.96743L19.1766 3.36305ZM16.4215 3.07057L16.5742 3.5467L16.6075 3.53602L16.639 3.52081L16.4215 3.07057ZM16.3005 3.12283L16.0634 2.68261L16.0615 2.68362L16.3005 3.12283ZM15.3719 3.35915L15.5336 2.88602L15.531 2.88515L15.3719 3.35915ZM14.7297 2.56908L14.2776 2.78258L14.2789 2.78531L14.7297 2.56908ZM14.6666 2.46067L14.2248 2.6949L14.2389 2.7214L14.256 2.74602L14.6666 2.46067ZM9.89719 2.45443L10.3084 2.73884L10.3249 2.71501L10.3385 2.68944L9.89719 2.45443ZM9.83027 2.56908L9.37987 2.35196L9.37882 2.35417L9.83027 2.56908ZM9.18964 3.35915L9.03008 2.88528L9.02788 2.88604L9.18964 3.35915ZM8.26103 3.12283L8.49972 2.68337L8.49123 2.67897L8.26103 3.12283ZM8.14148 3.07135L7.92403 3.52159L7.95431 3.53621L7.98627 3.54665L8.14148 3.07135ZM5.38421 3.36383L5.69038 3.75913L5.69062 3.75893L5.38421 3.36383ZM4.28491 6.02806L4.78484 6.03652L4.78536 6.0059L4.78214 5.97544L4.28491 6.02806ZM4.29243 6.15987L3.79585 6.21972L3.7978 6.23295L4.29243 6.15987ZM3.31269 7.6238L3.39084 8.11769L3.39627 8.11676L3.31269 7.6238ZM3.18411 7.65812L3.29177 8.14639L3.3269 8.13864L3.36057 8.12594L3.18411 7.65812ZM1.13214 9.60248L1.6104 9.7483L1.61042 9.74824L1.13214 9.60248ZM1.71186 12.4352L2.13498 12.1688L2.1158 12.1383L2.09244 12.1109L1.71186 12.4352ZM1.79608 12.5428L2.16075 12.2007L2.16009 12.2L1.79608 12.5428ZM1.79608 14.3616L2.16019 14.7043L2.16075 14.7037L1.79608 14.3616ZM1.71337 14.4677L2.09358 14.7924L2.11563 14.7666L2.13398 14.738L1.71337 14.4677ZM1.13214 17.3019L0.653841 17.4477L0.653856 17.4477L1.13214 17.3019ZM3.18185 19.2471L3.35554 18.7782L3.32342 18.7663L3.28997 18.7589L3.18185 19.2471ZM3.31344 19.2822L3.22826 19.7749L3.23065 19.7753L3.31344 19.2822ZM4.29318 20.7446L4.78749 20.8198L4.78776 20.818L4.29318 20.7446ZM4.28491 20.8748L4.78211 20.9277L4.78538 20.897L4.78484 20.866L4.28491 20.8748ZM5.38346 23.5414L5.68999 23.1464L5.68962 23.1461L5.38346 23.5414ZM8.13621 23.8362L7.98605 23.3593L7.95194 23.37L7.91971 23.3855L8.13621 23.8362ZM8.26028 23.7832L8.49713 24.2235L8.49892 24.2225L8.26028 23.7832ZM9.18889 23.5468L9.02713 24.02L9.02933 24.0207L9.18889 23.5468ZM9.82952 24.3369L9.37824 24.5523L9.38079 24.5575L9.82952 24.3369ZM12.28 25.4319C11.4824 25.4319 10.7442 24.9804 10.3371 24.2151L9.45428 24.6849C10.0231 25.754 11.088 26.4319 12.28 26.4319V25.4319ZM14.2252 24.2119C13.8164 24.9799 13.0772 25.4319 12.28 25.4319V26.4319C13.4724 26.4319 14.5378 25.7529 15.1079 24.6818L14.2252 24.2119ZM14.2767 24.1261C14.2729 24.1343 14.2663 24.1466 14.2542 24.1642L15.079 24.7296C15.115 24.677 15.152 24.6159 15.1843 24.5461L14.2767 24.1261ZM15.2148 23.0716C14.9326 23.1655 14.7323 23.3915 14.6085 23.5589C14.4726 23.7425 14.3614 23.95 14.2799 24.1195L15.1811 24.5528C15.25 24.4095 15.3298 24.2652 15.4123 24.1537C15.5069 24.0259 15.5525 24.0132 15.5305 24.0205L15.2148 23.0716ZM16.5399 23.343C16.3108 23.2186 16.0882 23.1225 15.8788 23.0693C15.6755 23.0177 15.4377 22.9945 15.2092 23.0735L15.536 24.0186C15.506 24.029 15.525 24.0112 15.6326 24.0386C15.7342 24.0644 15.8766 24.1208 16.0626 24.2218L16.5399 23.343ZM16.583 23.3612C16.5647 23.355 16.5501 23.3485 16.5383 23.3422L16.0641 24.2226C16.1306 24.2584 16.1972 24.2862 16.2616 24.3081L16.583 23.3612ZM18.8703 23.146C18.2178 23.6535 17.3787 23.7397 16.639 23.384L16.2056 24.2852C17.2856 24.8046 18.5307 24.6771 19.4843 23.9352L18.8703 23.146ZM19.7794 20.9317C19.8713 21.8067 19.5214 22.6425 18.8715 23.1451L19.4832 23.9361C20.4228 23.2096 20.9 22.0269 20.7739 20.8272L19.7794 20.9317ZM19.7731 20.8177C19.7758 20.8361 19.777 20.8538 19.7767 20.8712L20.7765 20.8878C20.7778 20.8147 20.7729 20.742 20.7621 20.6698L19.7731 20.8177ZM21.1638 18.7883C20.6931 18.8673 20.208 19.0009 19.933 19.4119C19.6684 19.8072 19.6987 20.3167 19.773 20.8172L20.7622 20.6703C20.6853 20.153 20.7359 20.0101 20.764 19.9681C20.7817 19.9417 20.8617 19.853 21.3294 19.7745L21.1638 18.7883ZM21.1918 18.7814C21.19 18.7822 21.1818 18.7852 21.1614 18.7887L21.3317 19.7741C21.4016 19.762 21.4791 19.7432 21.56 19.7112L21.1918 18.7814ZM22.9495 17.1557C22.6964 17.9883 22.0531 18.5851 21.2683 18.758L21.4835 19.7346C22.6387 19.4801 23.5533 18.6075 23.9063 17.4466L22.9495 17.1557ZM22.467 14.7914C23.0138 15.4324 23.2019 16.3272 22.9496 17.1555L23.9062 17.4469C24.2569 16.2957 23.9983 15.0457 23.2278 14.1424L22.467 14.7914ZM22.3958 14.6992C22.4103 14.715 22.4216 14.7294 22.4306 14.7431L23.2642 14.1907C23.2236 14.1295 23.1792 14.0738 23.132 14.0225L22.3958 14.6992ZM22.3991 12.2002C22.0564 12.5659 21.7564 12.9667 21.7564 13.4514C21.7564 13.9362 22.0564 14.337 22.3991 14.7027L23.1288 14.019C22.7948 13.6625 22.7564 13.515 22.7564 13.4514C22.7564 13.3879 22.7948 13.2404 23.1288 12.8839L22.3991 12.2002ZM22.4279 12.1632C22.4179 12.1784 22.4085 12.1901 22.3998 12.1994L23.128 12.8847C23.181 12.8285 23.2258 12.77 23.2639 12.7119L22.4279 12.1632ZM22.9495 9.74697C23.2014 10.5766 23.0135 11.4721 22.4659 12.1126L23.2259 12.7625C23.9986 11.8587 24.2559 10.6078 23.9063 9.45643L22.9495 9.74697ZM21.2693 8.14551C22.0531 8.31909 22.6958 8.91471 22.9496 9.74746L23.9062 9.45594C23.5524 8.2952 22.6387 7.42455 21.4855 7.16917L21.2693 8.14551ZM21.1614 8.11571C21.1809 8.11908 21.1947 8.12292 21.2064 8.12719L21.5484 7.18749C21.4744 7.16056 21.4025 7.14255 21.3318 7.13033L21.1614 8.11571ZM19.7723 6.08643C19.6979 6.58719 19.6679 7.09664 19.9327 7.492C20.2078 7.90273 20.6927 8.03663 21.1634 8.11605L21.3298 7.12999C20.8621 7.05108 20.7815 6.96231 20.7636 6.93551C20.7353 6.89332 20.6846 6.75036 20.7614 6.23331L19.7723 6.08643ZM19.7759 6.03589C19.7762 6.0509 19.7752 6.06731 19.7725 6.08463L20.7611 6.23512C20.772 6.16352 20.777 6.09102 20.7758 6.01868L19.7759 6.03589ZM18.8702 3.75821C19.5204 4.26225 19.87 5.09913 19.7786 5.97541L20.7732 6.07915C20.8983 4.87926 20.4223 3.69612 19.4829 2.96788L18.8702 3.75821ZM16.639 3.52081C17.3751 3.16531 18.2147 3.25162 18.8708 3.75866L19.4823 2.96743C18.5278 2.22971 17.2831 2.09919 16.2041 2.62033L16.639 3.52081ZM16.5376 3.56304C16.5543 3.55404 16.5666 3.54913 16.5742 3.5467L16.2689 2.59444C16.1938 2.61853 16.1249 2.6495 16.0634 2.68261L16.5376 3.56304ZM15.2101 3.83226C15.4383 3.91028 15.6752 3.88773 15.8793 3.83583C16.0888 3.78256 16.3109 3.68635 16.5394 3.56203L16.0615 2.68362C15.8757 2.7847 15.734 2.84097 15.6329 2.86667C15.5265 2.89373 15.5062 2.87665 15.5336 2.88603L15.2101 3.83226ZM14.2789 2.78531C14.3603 2.95494 14.4715 3.16226 14.6076 3.34591C14.7316 3.5134 14.9316 3.73875 15.2127 3.83314L15.531 2.88515C15.552 2.89219 15.5058 2.87849 15.4112 2.75077C15.3286 2.63922 15.2488 2.49519 15.1806 2.35285L14.2789 2.78531ZM14.256 2.74602C14.2657 2.75996 14.2729 2.77267 14.2776 2.78258L15.1819 2.35558C15.1505 2.28905 15.1141 2.22845 15.0772 2.17531L14.256 2.74602ZM12.28 1.47412C13.078 1.47412 13.8175 1.92677 14.2248 2.6949L15.1083 2.22644C14.5396 1.15393 13.4731 0.474121 12.28 0.474121V1.47412ZM10.3385 2.68944C10.7456 1.92492 11.4831 1.47412 12.28 1.47412V0.474121C11.0889 0.474121 10.0247 1.1511 9.45587 2.21942L10.3385 2.68944ZM10.2807 2.78619C10.2882 2.7705 10.2975 2.7547 10.3084 2.73884L9.48596 2.17002C9.44731 2.22591 9.41141 2.28654 9.37987 2.35196L10.2807 2.78619ZM9.34921 3.833C9.62971 3.73855 9.82941 3.51356 9.95337 3.346C10.0893 3.16227 10.2004 2.95474 10.2817 2.78398L9.37882 2.35417C9.31122 2.49617 9.23177 2.63999 9.14945 2.75127C9.05516 2.87872 9.00899 2.89239 9.03008 2.88529L9.34921 3.833ZM8.02239 3.5622C8.24973 3.68568 8.47112 3.78211 8.68035 3.83565C8.88483 3.88796 9.12201 3.91069 9.35141 3.83226L9.02788 2.88604C9.05426 2.87702 9.03391 2.89389 8.92823 2.86685C8.8273 2.84103 8.68589 2.78459 8.49968 2.68345L8.02239 3.5622ZM7.98627 3.54665C7.99311 3.54888 8.00705 3.55435 8.03084 3.56669L8.49123 2.67897C8.43682 2.65075 8.37105 2.62034 8.29668 2.59605L7.98627 3.54665ZM5.69062 3.75893C6.34504 3.25142 7.18724 3.16575 7.92403 3.52159L8.35893 2.62111C7.28059 2.10031 6.03248 2.22834 5.0778 2.96872L5.69062 3.75893ZM4.78214 5.97544C4.68956 5.10074 5.03941 4.26331 5.69038 3.75913L5.07804 2.96852C4.13796 3.69663 3.6607 4.88077 3.78769 6.08069L4.78214 5.97544ZM4.78884 6.10005C4.78559 6.07311 4.78456 6.05289 4.78484 6.03652L3.78498 6.01961C3.78376 6.09215 3.78874 6.15928 3.79602 6.2197L4.78884 6.10005ZM3.39627 8.11676C3.86704 8.03694 4.35157 7.90269 4.62641 7.49189C4.89086 7.09663 4.86103 6.58741 4.78706 6.08679L3.7978 6.23295C3.87422 6.75014 3.8237 6.89333 3.79528 6.93581C3.77726 6.96275 3.69672 7.05155 3.2291 7.13084L3.39627 8.11676ZM3.36057 8.12594C3.37231 8.12152 3.38227 8.11901 3.39083 8.11766L3.23454 7.12994C3.15438 7.14263 3.07862 7.16352 3.00765 7.19029L3.36057 8.12594ZM1.61042 9.74824C1.86422 8.91548 2.50761 8.31929 3.29177 8.14639L3.07645 7.16985C1.92218 7.42435 1.00761 8.29598 0.653856 9.45672L1.61042 9.74824ZM2.09244 12.1109C1.54611 11.4697 1.35816 10.5756 1.6104 9.7483L0.653873 9.45667C0.303078 10.6072 0.561767 11.8564 1.33129 12.7595L2.09244 12.1109ZM2.16009 12.2C2.14707 12.1862 2.13929 12.1756 2.13498 12.1688L1.28874 12.7016C1.33256 12.7712 1.38193 12.8323 1.43207 12.8856L2.16009 12.2ZM2.16075 14.7037C2.50376 14.338 2.80418 13.9372 2.80418 13.4522C2.80418 12.9672 2.50376 12.5664 2.16075 12.2007L1.43141 12.8849C1.76587 13.2414 1.80418 13.3889 1.80418 13.4522C1.80418 13.5155 1.76587 13.663 1.43141 14.0195L2.16075 14.7037ZM2.13398 14.738C2.14203 14.7255 2.15108 14.714 2.16019 14.7043L1.43197 14.0189C1.37942 14.0748 1.33282 14.135 1.29275 14.1973L2.13398 14.738ZM1.61044 17.1562C1.35811 16.328 1.54621 15.4333 2.09358 14.7924L1.33316 14.143C0.561673 15.0463 0.303129 16.2964 0.653841 17.4477L1.61044 17.1562ZM3.28997 18.7589C2.50661 18.5854 1.86434 17.9894 1.61042 17.1562L0.653856 17.4477C1.00748 18.608 1.92017 19.4798 3.07374 19.7353L3.28997 18.7589ZM3.39861 18.7895C3.38164 18.7866 3.36707 18.7825 3.35554 18.7782L3.00817 19.716C3.08085 19.7429 3.15501 19.7622 3.22827 19.7749L3.39861 18.7895ZM4.78776 20.818C4.86211 20.3173 4.89214 19.8077 4.62725 19.4124C4.352 19.0017 3.86693 18.8681 3.39623 18.7891L3.23065 19.7753C3.69834 19.8538 3.7787 19.9425 3.79651 19.9691C3.82468 20.0111 3.87539 20.154 3.79861 20.6711L4.78776 20.818ZM4.78484 20.866C4.7845 20.8471 4.78554 20.8326 4.78749 20.8198L3.79888 20.6693C3.78729 20.7454 3.78382 20.8167 3.78499 20.8836L4.78484 20.866ZM5.68962 23.1461C5.03885 22.642 4.68887 21.804 4.78211 20.9277L3.78772 20.8219C3.65989 22.0233 4.13702 23.2084 5.07729 23.9367L5.68962 23.1461ZM7.91971 23.3855C7.18268 23.7396 6.34308 23.6532 5.68999 23.1464L5.07692 23.9364C6.02992 24.6759 7.27463 24.8048 8.35272 24.2869L7.91971 23.3855ZM8.02343 23.3428C8.00683 23.3517 7.99444 23.3566 7.98605 23.3593L8.28638 24.3131C8.3622 24.2892 8.43252 24.2583 8.49712 24.2235L8.02343 23.3428ZM9.35065 23.0737C9.12126 22.9953 8.88407 23.018 8.6796 23.0703C8.47036 23.1239 8.24898 23.2203 8.02164 23.3438L8.49892 24.2225C8.68513 24.1214 8.82654 24.065 8.92747 24.0391C9.03316 24.0121 9.05351 24.029 9.02713 24.02L9.35065 23.0737ZM10.2808 24.1216C10.1996 23.9515 10.0885 23.7441 9.95271 23.5604C9.82895 23.393 9.6292 23.1675 9.34846 23.073L9.02933 24.0207C9.00799 24.0135 9.05412 24.0271 9.1486 24.1549C9.23103 24.2664 9.31055 24.4103 9.37827 24.5523L10.2808 24.1216ZM10.304 24.1614C10.2978 24.1527 10.2891 24.1384 10.2783 24.1164L9.38079 24.5575C9.40905 24.6149 9.44391 24.6771 9.48742 24.7386L10.304 24.1614Z" fill="white"/>
<path d="M11.5864 17.6958C11.4124 17.6958 11.237 17.6331 11.0951 17.5047C10.7845 17.223 10.7532 16.7341 11.0249 16.413L16.2513 10.2235C16.5238 9.90088 16.9949 9.86916 17.3047 10.1508C17.6153 10.4324 17.6467 10.9206 17.3757 11.2425L12.1494 17.4319C12.0008 17.6068 11.794 17.6958 11.5864 17.6958Z" fill="white"/>
<path d="M11.5199 17.4462C11.3254 17.4462 11.1308 17.3687 10.9826 17.2146L7.94288 14.0535C7.64575 13.7445 7.64575 13.245 7.94288 12.936C8.24002 12.627 8.7203 12.627 9.01743 12.936L12.0572 16.0972C12.3543 16.4062 12.3543 16.9056 12.0572 17.2146C11.909 17.3687 11.7144 17.4462 11.5199 17.4462Z" fill="white"/>
</svg>
